<?xml version="1.0" encoding="UTF-8" standalone="no" ?>
<!DOCTYPE svg PUBLIC "-//W3C//DTD SVG 1.1//EN" "http://www.w3.org/Graphics/SVG/1.1/DTD/svg11.dtd">
<svg xmlns="http://www.w3.org/2000/svg" xmlns:xlink="http://www.w3.org/1999/xlink" version="1.1" width="1080" height="1080" viewBox="0 0 1080 1080" xml:space="preserve">
<desc>Created with Fabric.js 5.2.4</desc>
<defs>
</defs>
<g transform="matrix(1 0 0 1 540 540)" id="e0b86dda-ea2f-42fc-b676-29d9ada02e1f"  >
<rect style="stroke: none; stroke-width: 1; stroke-dasharray: none; stroke-linecap: butt; stroke-dashoffset: 0; stroke-linejoin: miter; stroke-miterlimit: 4; fill: rgb(255,255,255); fill-rule: nonzero; opacity: 1; visibility: hidden;" vector-effect="non-scaling-stroke"  x="-540" y="-540" rx="0" ry="0" width="1080" height="1080" />
</g>
<g transform="matrix(1 0 0 1 540 540)" id="4d4422fc-5217-404a-9974-b06fde4653ee"  >
</g>
<g transform="matrix(56.25 0 0 56.25 540 540)" id="Layer_1"  >
<path style="stroke: none; stroke-width: 1; stroke-dasharray: none; stroke-linecap: butt; stroke-dashoffset: 0; stroke-linejoin: miter; stroke-miterlimit: 4; fill: rgb(0,0,0); fill-rule: nonzero; opacity: 1;"  transform=" translate(-9.4, -8.5)" d="M 17.6 8.8 L 17.6 13 C 17.6 14.8 16.200000000000003 16.2 14.400000000000002 16.2 L 4.4 16.2 C 2.7 16.2 1.2000000000000002 14.799999999999999 1.2000000000000002 13 L 1.2000000000000002 8.8 C 1.2000000000000002 8.4 1.5000000000000002 8.100000000000001 1.9000000000000001 8.100000000000001 C 2.3 8.100000000000001 2.6 8.400000000000002 2.6 8.8 L 2.6 13.100000000000001 C 2.6 14.100000000000001 3.4000000000000004 15.000000000000002 4.5 15.000000000000002 L 14.6 15.000000000000002 C 15.6 15.000000000000002 16.5 14.200000000000001 16.5 13.100000000000001 L 16.5 8.8 C 16.5 8.4 16.8 8.100000000000001 17.2 8.100000000000001 C 17.599999999999998 8.100000000000001 17.6 8.5 17.6 8.8 z M 9 12.5 C 9.1 12.6 9.3 12.7 9.5 12.7 C 9.7 12.7 9.8 12.6 10 12.5 L 12.9 9.6 C 13.200000000000001 9.299999999999999 13.200000000000001 8.9 12.9 8.7 C 12.700000000000001 8.399999999999999 12.200000000000001 8.399999999999999 12 8.7 L 10.2 10.5 L 10.2 1.5 C 10.2 1.1 9.899999999999999 0.8 9.5 0.8 C 9.100000000000001 0.8 8.8 1.2 8.8 1.5 L 8.8 10.4 L 7 8.6 C 6.8 8.5 6.7 8.5 6.5 8.5 C 6.5 8.5 6.5 8.5 6.5 8.5 C 6.3 8.5 6.2 8.5 6 8.6 C 5.8 8.9 5.8 9.3 6 9.6 L 9 12.5 z" stroke-linecap="round" />
</g>
</svg>