<?xml version="1.0" encoding="UTF-8" standalone="no" ?>
<!DOCTYPE svg PUBLIC "-//W3C//DTD SVG 1.1//EN" "http://www.w3.org/Graphics/SVG/1.1/DTD/svg11.dtd">
<svg xmlns="http://www.w3.org/2000/svg" xmlns:xlink="http://www.w3.org/1999/xlink" version="1.1" width="1080" height="1080" viewBox="0 0 1080 1080" xml:space="preserve">
<desc>Created with Fabric.js 5.2.4</desc>
<defs>
</defs>
<g transform="matrix(1 0 0 1 540 540)" id="c1d41395-d3b2-4708-97ec-e1c75f99c659"  >
<rect style="stroke: none; stroke-width: 1; stroke-dasharray: none; stroke-linecap: butt; stroke-dashoffset: 0; stroke-linejoin: miter; stroke-miterlimit: 4; fill: rgb(255,255,255); fill-rule: nonzero; opacity: 1; visibility: hidden;" vector-effect="non-scaling-stroke"  x="-540" y="-540" rx="0" ry="0" width="1080" height="1080" />
</g>
<g transform="matrix(1 0 0 1 540 540)" id="a28fffa1-a854-4575-9516-7ffdbb9532fa"  >
</g>
<g transform="matrix(67.5 0 0 67.5 540 540)"  >
<path style="stroke: none; stroke-width: 1; stroke-dasharray: none; stroke-linecap: butt; stroke-dashoffset: 0; stroke-linejoin: miter; stroke-miterlimit: 4; fill: rgb(0,0,0); fill-rule: evenodd; opacity: 1;"  transform=" translate(-8, -8)" d="M 3 16 C 1.6192881254230165 16 0.5 14.880711874576983 0.5 13.5 L 0.5 5.548 C 0.5002215184970105 4.891768257964558 0.822355958816884 4.277395845103919 1.3620000000000003 3.904 L 6.486 0.356 C 6.820593239679402 0.12419140642351031 7.217952263156846 -0.000005092573829190705 7.625 1.1102230246251565e-16 L 8.375 0 C 8.782047736843154 -0.000005092573829079105 9.179406760320596 0.12419140642351023 9.514 0.35599999999999965 L 14.637999999999998 3.904 C 15.177644041183115 4.277395845103919 15.499778481502988 4.891768257964557 15.499999999999998 5.547999999999999 L 15.499999999999998 13.5 C 15.499999999999998 14.880711874576983 14.380711874576983 16 13 16 L 3 16 Z M 5 14.5 L 3 14.5 C 2.4477152501692068 14.5 2 14.052284749830793 2 13.5 L 2 5.548 C 1.9999417489797822 5.384034636026709 2.080278713328733 5.230460253015459 2.215 5.1370000000000005 L 7.34 1.589 C 7.423718399690209 1.5309992643750632 7.52315279553604 1.4999478214618034 7.625 1.5 L 8.375 1.5 C 8.47684720446396 1.4999478214618034 8.576281600309791 1.5309992643750632 8.66 1.589 L 13.785 5.1370000000000005 C 13.919431118068935 5.230258641369378 13.999730754887345 5.38338818134867 14 5.547000000000001 L 14 13.5 C 14 14.052284749830793 13.552284749830793 14.5 13 14.5 L 11 14.5 L 11 8 C 11 7.447715250169207 10.552284749830793 7 10 7 L 6 7 C 5.447715250169207 7 5 7.447715250169207 5 8 L 5 14.5 Z M 6.5 14.5 L 9.5 14.5 L 9.5 8.5 L 6.5 8.5 L 6.5 14.5 Z" stroke-linecap="round" />
</g>
</svg>