<?xml version="1.0" encoding="UTF-8" ?>
<!DOCTYPE svg PUBLIC "-//W3C//DTD SVG 1.1//EN" "http://www.w3.org/Graphics/SVG/1.1/DTD/svg11.dtd">
<svg width="1568pt" height="507pt" viewBox="0 0 1568 507" version="1.1" xmlns="http://www.w3.org/2000/svg">
<g id="#cc0d7dff">
<path fill="#cc0d7d" opacity="1.00" d=" M 179.01 74.05 C 210.13 58.49 245.43 51.56 280.12 53.90 C 281.92 55.94 284.40 58.01 284.28 60.99 C 284.01 63.74 282.34 66.56 279.55 67.35 C 275.13 68.59 270.52 67.52 266.01 67.74 C 204.67 66.38 144.80 100.72 112.75 152.65 C 109.77 157.47 102.22 154.66 100.73 149.94 C 99.61 147.33 101.40 144.90 102.76 142.82 C 121.27 113.52 147.92 89.40 179.01 74.05 Z" />
<path fill="#cc0d7d" opacity="1.00" d=" M 306.12 58.12 C 308.07 55.81 311.44 56.06 314.11 56.59 C 331.11 59.82 347.69 65.22 363.29 72.70 C 365.42 73.54 367.09 75.66 366.91 78.02 C 366.89 81.48 364.34 84.17 361.80 86.19 C 344.80 79.31 327.54 72.63 309.43 69.33 C 304.34 68.74 302.99 61.56 306.12 58.12 Z" />
<path fill="#cc0d7d" opacity="1.00" d=" M 381.74 95.75 C 383.12 93.53 385.06 90.88 387.95 90.86 C 392.73 90.52 397.16 95.28 396.03 100.07 C 394.90 103.62 390.94 104.84 388.09 106.65 C 384.27 104.63 380.06 100.46 381.74 95.75 Z" />
<path fill="#cc0d7d" opacity="1.00" d=" M 418.89 139.06 C 415.89 133.84 422.22 126.88 427.70 129.48 C 433.84 134.56 437.32 141.96 441.12 148.79 C 454.05 173.10 463.21 200.11 463.24 227.88 C 462.09 228.84 460.95 229.81 459.82 230.78 C 457.68 230.76 455.54 230.74 453.41 230.73 C 452.01 228.96 449.69 227.51 449.93 224.97 C 446.88 194.34 436.02 164.60 418.89 139.06 Z" />
<path fill="#cc0d7d" opacity="1.00" d=" M 1228.09 146.36 C 1241.28 146.40 1254.47 146.36 1267.66 146.38 C 1253.86 213.16 1240.03 279.94 1225.97 346.66 C 1213.13 346.57 1200.29 346.66 1187.46 346.62 C 1188.61 340.78 1189.98 334.99 1191.02 329.14 C 1184.15 336.45 1175.88 342.55 1166.54 346.32 C 1157.27 350.27 1146.98 351.04 1137.03 350.19 C 1124.53 348.93 1112.05 342.77 1105.14 331.99 C 1095.64 318.39 1093.72 301.05 1095.28 284.92 C 1097.58 259.89 1106.58 234.64 1124.52 216.53 C 1141.51 198.68 1168.45 188.90 1192.52 196.63 C 1202.02 199.94 1209.25 207.85 1213.51 216.77 C 1218.27 193.28 1223.13 169.81 1228.09 146.36 M 1171.41 229.53 C 1162.86 231.63 1155.58 237.31 1150.23 244.17 C 1143.51 252.84 1139.76 263.44 1137.47 274.06 C 1135.44 284.70 1134.25 296.46 1139.58 306.37 C 1142.47 312.14 1148.15 316.15 1154.46 317.33 C 1167.33 320.09 1181.16 314.40 1189.29 304.26 C 1199.29 292.05 1203.82 276.31 1205.45 260.85 C 1206.27 251.76 1204.56 241.69 1197.97 234.94 C 1190.99 228.35 1180.40 227.26 1171.41 229.53 Z" />
<path fill="#cc0d7d" opacity="1.00" d=" M 1457.42 146.39 C 1470.62 146.36 1483.83 146.38 1497.03 146.38 C 1483.19 213.12 1469.21 279.82 1455.40 346.57 C 1442.18 346.68 1428.95 346.63 1415.73 346.59 C 1429.65 279.86 1443.53 213.12 1457.42 146.39 Z" />
<path fill="#cc0d7d" opacity="1.00" d=" M 220.83 192.08 C 230.08 183.76 239.66 175.81 248.87 167.45 C 276.28 194.21 303.98 220.68 331.81 247.00 C 348.73 229.54 366.19 212.61 383.26 195.31 C 399.50 195.48 415.76 194.91 432.00 195.53 C 397.08 229.74 362.67 264.46 328.07 298.99 C 292.46 263.21 256.82 227.46 220.83 192.08 Z" />
<path fill="#cc0d7d" opacity="1.00" d=" M 79.41 194.07 C 80.55 190.93 84.34 190.33 86.88 188.72 C 90.29 190.76 93.83 194.56 92.29 198.85 C 79.10 244.84 85.64 295.97 109.73 337.28 C 128.04 369.09 156.40 394.96 189.61 410.56 C 218.26 424.03 250.55 429.57 282.06 426.54 C 287.27 427.37 289.81 435.21 285.89 438.96 C 283.61 441.47 279.99 440.95 276.95 441.24 C 217.25 444.53 156.37 418.89 117.84 372.99 C 95.64 346.30 80.31 313.82 74.66 279.52 C 69.89 251.15 71.50 221.72 79.41 194.07 Z" />
<path fill="#cc0d7d" opacity="1.00" d=" M 1319.46 199.52 C 1327.65 196.46 1336.38 195.17 1345.07 194.59 C 1357.88 193.77 1371.15 195.37 1382.75 201.14 C 1395.16 207.09 1403.41 219.70 1406.04 232.97 C 1409.34 249.40 1406.76 266.31 1402.74 282.36 C 1368.95 282.59 1335.16 282.53 1301.38 282.39 C 1300.66 290.73 1299.72 299.68 1303.49 307.47 C 1306.05 312.87 1311.56 316.04 1317.12 317.62 C 1332.22 322.11 1350.06 315.43 1357.92 301.64 C 1371.23 301.59 1384.54 301.68 1397.85 301.59 C 1390.93 319.22 1376.48 333.39 1359.59 341.64 C 1346.42 348.19 1331.54 350.26 1316.98 350.39 C 1303.13 350.40 1288.61 347.22 1277.69 338.27 C 1265.73 328.28 1261.14 312.08 1261.01 297.00 C 1261.40 277.21 1265.40 257.20 1274.56 239.54 C 1284.02 221.37 1300.18 206.61 1319.46 199.52 M 1320.33 236.25 C 1314.47 242.01 1310.57 249.41 1307.32 256.88 C 1327.11 256.89 1346.91 256.82 1366.70 256.95 C 1367.62 249.74 1367.38 241.87 1363.29 235.60 C 1360.53 231.12 1355.45 228.81 1350.52 227.63 C 1339.89 225.34 1328.06 228.51 1320.33 236.25 Z" />
<path fill="#cc0d7d" opacity="1.00" d=" M 107.21 312.81 C 141.68 278.06 176.37 243.54 211.00 208.95 C 246.49 244.76 282.01 280.55 317.95 315.91 C 308.87 324.03 299.38 331.69 290.55 340.09 L 290.06 340.06 C 262.52 313.61 234.88 287.26 207.26 260.90 C 190.31 278.33 172.91 295.31 155.75 312.51 C 139.57 312.88 123.38 312.32 107.21 312.81 Z" />
<path fill="#cc0d7d" opacity="1.00" d=" M 448.49 277.89 C 448.57 273.60 452.83 270.23 457.03 271.04 C 460.68 271.40 464.20 274.68 463.85 278.51 C 457.37 339.98 418.09 396.87 362.98 424.81 C 359.83 423.01 355.27 421.38 355.32 417.02 C 354.65 412.66 358.78 409.92 362.10 408.15 C 409.50 381.85 442.47 331.69 448.49 277.89 Z" />
<path fill="#cc0d7d" opacity="1.00" d=" M 314.62 423.59 C 317.42 421.29 321.28 422.08 324.58 422.42 C 325.71 424.82 327.48 427.15 327.37 429.93 C 326.65 433.97 322.57 435.80 319.45 437.77 C 316.71 435.90 313.51 434.06 312.31 430.77 C 311.29 428.15 312.93 425.48 314.62 423.59 Z" />
</g>
<g id="#0a0609ff">
<path fill="#0a0609" opacity="1.00" d=" M 561.69 146.45 C 582.28 146.28 602.88 146.41 623.48 146.39 C 624.46 198.63 625.69 250.88 626.85 303.11 C 649.82 250.94 672.35 198.58 695.21 146.36 C 715.47 146.38 735.74 146.41 756.00 146.35 C 742.46 212.89 728.57 279.36 714.54 345.80 C 701.44 347.89 688.15 346.00 674.98 346.68 C 677.27 332.99 680.52 319.46 683.22 305.84 C 689.04 277.92 694.92 250.01 700.65 222.06 C 703.01 209.61 706.06 197.27 707.91 184.74 C 684.67 238.65 661.35 292.53 638.25 346.50 C 624.26 346.79 610.25 346.54 596.25 346.62 C 596.41 322.74 595.86 298.87 595.62 275.00 C 595.82 258.33 594.96 241.68 595.12 225.01 C 594.93 210.10 595.13 195.16 594.00 180.28 C 582.89 235.79 571.03 291.16 559.65 346.62 C 546.42 346.64 533.19 346.61 519.97 346.64 C 533.87 279.91 547.96 213.22 561.69 146.45 Z" />
<path fill="#0a0609" opacity="1.00" d=" M 961.14 146.31 C 974.28 146.79 987.43 146.25 1000.57 146.39 C 995.71 169.58 990.89 192.78 985.95 215.96 C 995.14 206.73 1006.07 198.52 1018.98 195.54 C 1032.48 192.48 1047.43 193.38 1059.56 200.50 C 1070.03 206.62 1076.83 217.69 1079.75 229.26 C 1083.69 244.67 1081.79 260.87 1078.15 276.14 C 1073.21 296.37 1063.53 315.84 1048.38 330.35 C 1031.56 347.27 1005.27 355.37 982.29 347.54 C 973.24 344.44 966.65 336.93 961.62 329.10 C 960.53 334.93 959.33 340.75 958.26 346.58 C 945.27 346.68 932.29 346.58 919.30 346.64 C 933.32 279.88 946.83 213.00 961.14 146.31 M 1007.20 229.29 C 996.08 231.68 987.11 239.92 981.39 249.45 C 973.41 263.10 969.59 279.15 970.49 294.94 C 971.04 303.81 976.20 312.88 984.74 316.20 C 996.40 320.25 1010.06 317.45 1019.30 309.29 C 1029.07 301.02 1034.56 288.85 1037.38 276.59 C 1039.39 267.53 1040.96 258.06 1039.05 248.84 C 1037.64 241.91 1033.70 235.22 1027.46 231.64 C 1021.35 228.23 1013.93 227.78 1007.20 229.29 Z" />
<path fill="#0a0609" opacity="1.00" d=" M 762.31 290.44 C 768.91 259.64 775.02 228.74 781.74 197.98 C 794.98 197.95 808.22 198.15 821.46 197.85 C 815.05 229.26 808.32 260.61 801.87 292.01 C 800.62 298.54 799.81 306.19 804.25 311.76 C 808.41 317.03 815.74 317.56 821.95 317.39 C 834.10 317.31 845.63 310.20 851.76 299.81 C 856.54 291.94 858.55 282.81 860.26 273.87 C 865.47 248.57 870.73 223.28 876.04 198.00 C 889.28 198.00 902.53 197.99 915.78 198.01 C 905.51 247.58 895.38 297.18 884.74 346.67 C 872.17 346.56 859.60 346.65 847.04 346.63 C 848.32 340.04 849.66 333.47 850.90 326.87 C 840.62 339.65 825.32 348.36 808.95 350.00 C 798.71 350.91 787.94 350.82 778.40 346.56 C 768.85 342.39 761.76 333.23 759.89 323.01 C 758.03 312.12 759.92 301.08 762.31 290.44 Z" />
</g>
</svg>
