<?xml version="1.0" encoding="UTF-8" standalone="no" ?>
<!DOCTYPE svg PUBLIC "-//W3C//DTD SVG 1.1//EN" "http://www.w3.org/Graphics/SVG/1.1/DTD/svg11.dtd">
<svg xmlns="http://www.w3.org/2000/svg" xmlns:xlink="http://www.w3.org/1999/xlink" version="1.1" width="1080" height="1080" viewBox="0 0 1080 1080" xml:space="preserve">
<desc>Created with Fabric.js 5.2.4</desc>
<defs>
</defs>
<g transform="matrix(1 0 0 1 540 540)" id="2522c655-3fa8-433a-85f9-6664a7fff72b"  >
<rect style="stroke: none; stroke-width: 1; stroke-dasharray: none; stroke-linecap: butt; stroke-dashoffset: 0; stroke-linejoin: miter; stroke-miterlimit: 4; fill: rgb(255,255,255); fill-rule: nonzero; opacity: 1; visibility: hidden;" vector-effect="non-scaling-stroke"  x="-540" y="-540" rx="0" ry="0" width="1080" height="1080" />
</g>
<g transform="matrix(1 0 0 1 540 540)" id="34e01062-2c2c-406f-a0d1-bafdbbe0512e"  >
</g>
<g transform="matrix(67.5 0 0 67.5 540 540)"  >
<g style=""   >
		<g transform="matrix(1 0 0 1 0 0)"  >
<path style="stroke: none; stroke-width: 1; stroke-dasharray: none; stroke-linecap: butt; stroke-dashoffset: 0; stroke-linejoin: miter; stroke-miterlimit: 4; fill: rgb(0,0,0); fill-rule: evenodd; opacity: 1;" vector-effect="non-scaling-stroke"  transform=" translate(-8, -8)" d="M 8 10 C 9.104569499661586 10 10 9.104569499661586 10 8 C 10 6.8954305003384135 9.104569499661586 6 8 6 C 6.8954305003384135 6 6 6.8954305003384135 6 8 C 6 9.104569499661586 6.8954305003384135 10 8 10 Z M 8 11.5 C 9.932996624407778 11.5 11.5 9.932996624407778 11.5 8 C 11.5 6.067003375592223 9.932996624407778 4.5 8 4.5 C 6.067003375592223 4.5 4.5 6.067003375592223 4.5 8 C 4.5 9.932996624407778 6.067003375592223 11.5 8 11.5 Z" stroke-linecap="round" />
</g>
		<g transform="matrix(1 0 0 1 0 0)"  >
<path style="stroke: none; stroke-width: 1; stroke-dasharray: none; stroke-linecap: butt; stroke-dashoffset: 0; stroke-linejoin: miter; stroke-miterlimit: 4; fill: rgb(0,0,0); fill-rule: evenodd; opacity: 1;" vector-effect="non-scaling-stroke"  transform=" translate(-8, -8)" d="M 7.41 14.5 L 8.59 14.5 L 8.643 13.668 C 8.685426849451984 13.00007700547504 9.10445956672964 12.414595181056537 9.723 12.158999999999999 C 10.34081824536464 11.902313295616327 11.050885515692972 12.019881810867412 11.553 12.462 L 12.178 13.014 L 13.014000000000001 12.178999999999998 L 12.462000000000002 11.552999999999999 C 12.019881810867414 11.050885515692972 11.90231329561633 10.340818245364638 12.159 9.722999999999999 C 12.414595181056539 9.104459566729638 13.000077005475042 8.685426849451982 13.668000000000001 8.642999999999999 L 14.500000000000002 8.591 L 14.500000000000002 7.409 L 13.668000000000001 7.357 C 13.000077005475042 7.314573150548017 12.414595181056539 6.895540433270361 12.159 6.277 C 11.90231329561633 5.659181754635362 12.019881810867414 4.949114484307028 12.462000000000002 4.447 L 13.014000000000001 3.822 L 12.178 2.986 L 11.553 3.5380000000000003 C 11.050885515692972 3.9801181891325874 10.34081824536464 4.097686704383673 9.723 3.841 C 9.10445956672964 3.585404818943462 8.685426849451984 2.999922994524959 8.643 2.332 L 8.59 1.5 L 7.409 1.5 L 7.357 2.332 C 7.314573150548017 2.999922994524959 6.8955404332703605 3.5854048189434615 6.277 3.8409999999999997 C 5.659181754635362 4.097686704383672 4.949114484307028 3.980118189132587 4.447 3.538 L 3.822 2.9859999999999998 L 2.986 3.8219999999999996 L 3.5380000000000003 4.446999999999999 C 3.981227184195802 4.948887405433634 4.099839519364924 5.6594210715598585 3.843666816689542 6.278062204161818 C 3.5874941140141607 6.896703336763778 3.0012881243334326 7.315379242943589 2.333000000000001 7.356999999999999 L 1.5 7.41 L 1.5 8.592 L 2.332 8.644 C 2.999922994524959 8.686426849451983 3.585404818943461 9.105459566729639 3.8409999999999993 9.724 C 4.097686704383672 10.341818245364639 3.980118189132587 11.051885515692973 3.5380000000000003 11.554 L 2.9859999999999998 12.179 L 3.8219999999999996 13.015 L 4.446999999999999 12.463000000000001 C 4.949114484307027 12.020881810867413 5.659181754635361 11.903313295616329 6.276999999999999 12.16 C 6.8955404332703605 12.415595181056538 7.314573150548016 13.001077005475041 7.356999999999999 13.669 L 7.408999999999999 14.501000000000001 Z M 4.514 14.378 C 4.578 14.338000000000001 4.639 14.293 4.697 14.242 L 5.439 13.587000000000002 C 5.5117115847706035 13.523632730594846 5.614213602813248 13.50732559136079 5.703 13.545000000000002 C 5.792623133289338 13.580680274668481 5.853722142138468 13.66474005754372 5.86 13.761000000000001 L 5.922000000000001 14.750000000000002 C 5.929621357163949 14.869266189742977 5.953163487480963 14.986976841328046 5.992000000000001 15.100000000000001 C 6.172000000000001 15.626000000000001 6.671000000000001 16 7.252000000000001 16 L 8.747 16 C 9.450996221472652 15.999813869244468 10.033670425902127 15.452599176880197 10.078 14.75 L 10.139999999999999 13.761 C 10.146981999722968 13.664996044907188 10.207837677830284 13.581271035536613 10.296999999999999 13.545 C 10.385508294722989 13.507746067346915 10.487496542855492 13.524033164006859 10.559999999999999 13.587 L 11.302999999999999 14.241999999999999 C 11.392652446953992 14.321320319450736 11.492543902491718 14.388250958009683 11.6 14.440999999999999 C 12.1 14.684999999999999 12.716999999999999 14.597 13.128 14.184999999999999 L 14.185 13.127999999999998 C 14.682561864690353 12.62999921567993 14.70751439673729 11.831080426457808 14.242 11.302999999999999 L 13.587000000000002 10.561 C 13.523632730594846 10.488288415229396 13.50732559136079 10.385786397186752 13.545000000000002 10.297 C 13.581271035536615 10.207837677830286 13.66499604490719 10.14698199972297 13.761000000000001 10.14 L 14.750000000000002 10.078000000000001 C 14.869264626297804 10.07036674253589 14.98697370746968 10.046824926301515 15.100000000000001 10.008000000000001 C 15.626000000000001 9.828000000000001 16 9.329 16 8.748000000000001 L 16 7.252 C 15.999813869244468 6.548003778527348 15.452599176880197 5.965329574097872 14.75 5.920999999999999 L 13.761 5.858999999999999 C 13.664996044907188 5.85201800027703 13.581271035536613 5.791162322169714 13.545 5.701999999999999 C 13.507325591360788 5.613213602813246 13.523632730594844 5.510711584770602 13.587 5.437999999999999 L 14.241999999999999 4.695999999999999 C 14.32130121005143 4.606332805305269 14.388230050873128 4.506444032822634 14.440999999999999 4.398999999999999 C 14.684999999999999 3.898999999999999 14.597 3.281999999999999 14.184999999999999 2.870999999999999 L 13.127999999999998 1.8139999999999992 C 12.62999921567993 1.3164381353096475 11.831080426457808 1.2914856032627098 11.302999999999999 1.756999999999999 L 10.561 2.411999999999999 C 10.488288415229396 2.475367269405154 10.385786397186752 2.491674408639211 10.297 2.453999999999999 C 10.207837677830286 2.4177289644633864 10.14698199972297 2.334003955092811 10.14 2.2379999999999987 L 10.078000000000001 1.2489999999999988 C 10.070378642836053 1.1297338102570245 10.046836512519038 1.0120231586719546 10.008000000000001 0.8989999999999985 C 9.823703349110792 0.36097810638660244 9.317711442413126 -0.00032985558416986915 8.749 -1.1102230246251565e-16 L 7.252 0 C 6.548003778527348 0.0001861307555317719 5.965329574097872 0.547400823119803 5.920999999999999 1.2500000000000004 L 5.858999999999999 2.239 C 5.85201800027703 2.3350039550928123 5.791162322169714 2.4187289644633876 5.701999999999999 2.455 C 5.613213602813246 2.4926744086392127 5.510711584770602 2.4763672694051557 5.437999999999999 2.4130000000000003 L 4.695999999999999 1.7580000000000002 C 4.606332805305269 1.678698789948569 4.506444032822633 1.6117699491268707 4.398999999999998 1.5590000000000002 C 3.8872242503535817 1.3095169693512825 3.2735157229319567 1.4123372461967902 2.8709999999999987 1.8150000000000008 L 1.815 2.872 C 1.3174381353096474 3.3700007843200686 1.29248560326271 4.168919573542192 1.7580000000000005 4.697000000000001 L 2.4130000000000003 5.44 C 2.4770000000000003 5.5120000000000005 2.4930000000000003 5.614000000000001 2.455 5.703 C 2.4187289644633876 5.792162322169715 2.3350039550928123 5.853018000277031 2.239 5.86 L 1.25 5.922000000000001 C 1.1307338102570255 5.929621357163949 1.0130231586719551 5.953163487480963 0.8999999999999986 5.992000000000002 C 0.374 6.172000000000001 0 6.671000000000001 0 7.252000000000001 L 0 8.747 C 0.00018613075553235373 9.450996221472652 0.5474008231198029 10.033670425902127 1.2499999999999991 10.078 L 2.239 10.139999999999999 C 2.335 10.145999999999999 2.419 10.207999999999998 2.455 10.296999999999999 C 2.4926744086392123 10.38578639718675 2.4763672694051553 10.488288415229395 2.4130000000000003 10.560999999999998 L 1.7580000000000002 11.302999999999997 C 1.6787368398543603 11.392696550699737 1.6118115701717726 11.49257999339184 1.559 11.599999999999998 C 1.3150000000000002 12.099999999999998 1.4030000000000002 12.716999999999999 1.8150000000000002 13.127999999999998 L 2.872 14.184999999999999 C 3.308686896472333 14.62163297930708 3.9879702484716675 14.70147566319007 4.513999999999999 14.377999999999998 Z" stroke-linecap="round" />
</g>
</g>
</g>
</svg>