<?xml version="1.0" encoding="UTF-8" standalone="no" ?>
<!DOCTYPE svg PUBLIC "-//W3C//DTD SVG 1.1//EN" "http://www.w3.org/Graphics/SVG/1.1/DTD/svg11.dtd">
<svg xmlns="http://www.w3.org/2000/svg" xmlns:xlink="http://www.w3.org/1999/xlink" version="1.1" width="1080" height="1080" viewBox="0 0 1080 1080" xml:space="preserve">
<desc>Created with Fabric.js 5.2.4</desc>
<defs>
</defs>
<g transform="matrix(1 0 0 1 540 540)" id="6c574a7c-3974-4518-995d-35bb2ae60007"  >
<rect style="stroke: none; stroke-width: 1; stroke-dasharray: none; stroke-linecap: butt; stroke-dashoffset: 0; stroke-linejoin: miter; stroke-miterlimit: 4; fill: rgb(255,255,255); fill-rule: nonzero; opacity: 1; visibility: hidden;" vector-effect="non-scaling-stroke"  x="-540" y="-540" rx="0" ry="0" width="1080" height="1080" />
</g>
<g transform="matrix(1 0 0 1 540 540)" id="f4dee292-3e78-46e9-bf2a-2609cb74f948"  >
</g>
<g transform="matrix(67.5 0 0 67.5 540 540)"  >
<path style="stroke: none; stroke-width: 1; stroke-dasharray: none; stroke-linecap: butt; stroke-dashoffset: 0; stroke-linejoin: miter; stroke-miterlimit: 4; fill: rgb(0,0,0); fill-rule: nonzero; opacity: 1;"  transform=" translate(-8, -8)" d="M 9.714 6.693 C 9.433991631835788 6.998413466656428 9.454586533343571 7.472991631835788 9.76 7.753 C 10.065413466656429 8.033008368164213 10.539991631835788 8.01241346665643 10.82 7.707 L 13.753 4.507 C 14.015487363573417 4.220344895057709 14.015487363573417 3.7806551049422907 13.753 3.4939999999999998 L 10.82 0.294 C 10.640329784133582 0.09131364175045129 10.365333670416623 0.001249335698546128 10.100570833258892 0.0583788932860021 C 9.835807996101162 0.11550845087345807 9.622418339951116 0.3109548538390969 9.542312971210672 0.5696946385435504 C 9.462207602470226 0.8284344232480039 9.527833612472776 1.1102635711287496 9.714 1.307 L 11.495000000000001 3.25 L 4.6 3.25 C 2.528932188134524 3.25 0.8499999999999996 4.9289321881345245 0.8499999999999996 7 L 0.85 7.067 C 0.85 7.481213562373095 1.185786437626905 7.817 1.6 7.817 C 2.014213562373095 7.817 2.35 7.481213562373095 2.35 7.067 L 2.35 7 C 2.35 5.757359312880714 3.357359312880715 4.75 4.6 4.75 L 11.495 4.75 L 9.715 6.693 Z M 6.286 9.307 C 6.566008368164212 9.001586533343572 6.545413466656429 8.527008368164212 6.24 8.247 C 5.9345865333435714 7.966991631835787 5.460008368164212 7.9875865333435705 5.18 8.293 L 2.2479999999999998 11.492999999999999 C 1.984901621656514 11.779801215468215 1.984901621656514 12.220198784531782 2.2479999999999998 12.506999999999998 L 5.18 15.706999999999997 C 5.460008368164212 16.012413466656426 5.934586533343571 16.03300836816421 6.239999999999999 15.752999999999998 C 6.545413466656428 15.472991631835786 6.566008368164212 14.998413466656427 6.286 14.692999999999998 L 4.505999999999999 12.750999999999998 L 11.4 12.750999999999998 C 12.394735122172634 12.751000035368358 13.348713873373114 12.355774615777339 14.05200404547223 11.65229689963233 C 14.755294217571347 10.94881918348732 15.150265262699246 9.994735086804273 15.15 9 L 15.15 8.933 C 15.15 8.518786437626904 14.814213562373096 8.183 14.4 8.183 C 13.985786437626905 8.183 13.65 8.518786437626904 13.65 8.933 L 13.65 9 C 13.65 10.242640687119286 12.642640687119286 11.25 11.4 11.25 L 4.505 11.25 L 6.285 9.306000000000001 Z" stroke-linecap="round" />
</g>
</svg>