<?xml version="1.0" encoding="UTF-8" standalone="no" ?>
<!DOCTYPE svg PUBLIC "-//W3C//DTD SVG 1.1//EN" "http://www.w3.org/Graphics/SVG/1.1/DTD/svg11.dtd">
<svg xmlns="http://www.w3.org/2000/svg" xmlns:xlink="http://www.w3.org/1999/xlink" version="1.1" width="1080" height="1080" viewBox="0 0 1080 1080" xml:space="preserve">
<desc>Created with Fabric.js 5.2.4</desc>
<defs>
</defs>
<g transform="matrix(1 0 0 1 540 540)" id="082431b9-bfef-4ea9-bf8a-457703db45d4"  >
<rect style="stroke: none; stroke-width: 1; stroke-dasharray: none; stroke-linecap: butt; stroke-dashoffset: 0; stroke-linejoin: miter; stroke-miterlimit: 4; fill: rgb(255,255,255); fill-rule: nonzero; opacity: 1; visibility: hidden;" vector-effect="non-scaling-stroke"  x="-540" y="-540" rx="0" ry="0" width="1080" height="1080" />
</g>
<g transform="matrix(1 0 0 1 540 540)" id="be98fc4a-fbe9-4d7d-b08d-a015218d8a2e"  >
</g>
<g transform="matrix(51.43 0 0 51.43 540 540)" id="Layer_1"  >
<path style="stroke: none; stroke-width: 1; stroke-dasharray: none; stroke-linecap: butt; stroke-dashoffset: 0; stroke-linejoin: miter; stroke-miterlimit: 4; fill: rgb(0,0,0); fill-rule: nonzero; opacity: 1;"  transform=" translate(-10.5, -9.5)" d="M 17.6 4.3 L 17.400000000000002 4.3 L 17.400000000000002 3.3 C 17.400000000000002 2.0999999999999996 16.400000000000002 1.1999999999999997 15.200000000000003 1.1999999999999997 L 3.4 1.1999999999999997 C 2.2 1.1999999999999997 1.1999999999999997 2.1999999999999997 1.1999999999999997 3.3 L 1.1999999999999997 15.7 C 1.1999999999999997 16.9 2.1999999999999997 17.8 3.4 17.8 L 17.599999999999998 17.8 C 18.799999999999997 17.8 19.799999999999997 16.8 19.799999999999997 15.700000000000001 L 19.799999999999997 6.4 C 19.8 5.2 18.8 4.3 17.6 4.3 z M 3.4 2.3 L 15.3 2.3 C 15.8 2.3 16.3 2.6999999999999997 16.3 3.3 L 16.3 4.3 L 3.4 4.3 C 2.9 4.3 2.4 3.9 2.4 3.3 C 2.4 2.8 2.8 2.3 3.4 2.3 z M 18.6 12.4 L 16.200000000000003 12.4 L 16.300000000000004 12.1 C 16.500000000000004 11.799999999999999 16.500000000000004 11.4 16.500000000000004 11 C 16.500000000000004 10.6 16.400000000000002 10.3 16.200000000000003 9.9 L 16.1 9.6 L 18.5 9.6 L 18.5 12.4 z M 18.6 8.5 L 14.000000000000002 8.5 C 12.600000000000001 8.5 11.400000000000002 9.6 11.400000000000002 11 C 11.400000000000002 12.4 12.600000000000001 13.5 14.000000000000002 13.5 L 18.6 13.5 L 18.6 15.6 C 18.6 16.1 18.200000000000003 16.6 17.6 16.6 L 3.4 16.6 C 2.9 16.6 2.4 16.200000000000003 2.4 15.600000000000001 L 2.4 5.2 L 2.6999999999999997 5.3 C 2.9 5.3999999999999995 3.1999999999999997 5.3999999999999995 3.3999999999999995 5.3999999999999995 L 17.599999999999998 5.3999999999999995 C 18.099999999999998 5.3999999999999995 18.599999999999998 5.8 18.599999999999998 6.3999999999999995 L 18.599999999999998 8.5 z M 15.5 11 C 15.5 11.4 15.4 11.7 15.1 12 C 14.799999999999999 12.3 14.5 12.4 14.1 12.4 C 13.299999999999999 12.4 12.7 11.8 12.7 11 C 12.7 10.2 13.299999999999999 9.6 14.1 9.6 C 14.9 9.6 15.5 10.3 15.5 11 z" stroke-linecap="round" />
</g>
</svg>